<?xml version="1.0" encoding="utf-8" ?>
<svg baseProfile="full" height="1600" version="1.1" width="1600" xmlns="http://www.w3.org/2000/svg" xmlns:ev="http://www.w3.org/2001/xml-events" xmlns:xlink="http://www.w3.org/1999/xlink"><defs /><rect fill="#f7fbff" height="1600" width="1600" x="0" y="0" /><text fill="#102a43" font-family="Georgia" font-size="54" x="80" y="120">EcoNode25</text><text fill="#486581" font-family="Georgia" font-size="28" x="80" y="170">Transit First Scenario</text><polygon fill="rgb(117,174,103)" fill-opacity="0.35" points="934.4,800.0 934.3216478060137,795.411434791006 934.0866825792084,790.8282196437882 933.695378278528,786.2556983821906 933.1481911472829,781.6992023614645 932.4457591811913,777.1640442521472 931.5889013845042,772.655511845726 930.5786168150834,768.1788618893096 929.4160834195443,763.739313956496 928.1026566598232,759.3420443615835 926.6398679327694,754.9921801242194 925.0294227846048,750.6947929915252 923.2731989223329,746.4548935246652 921.3732440244172,742.2774252567569 919.3317733532792,738.1672589289332 917.1511671724018,734.1291868112745 914.8339679710481,730.1679171152377 912.3828774998332,726.2880685040916 909.8007536206034,722.4941647077619 907.0906069742975,718.7906292483649 904.255597470674,715.1817802825785 901.2990306039974,711.6718255668645 898.2243535989799,708.2648575514129 895.035151391472,704.964848608528 800.0,800.0 800.0,800.0 800.0,800.0 800.0,800.0 800.0,800.0 800.0,800.0 800.0,800.0 800.0,800.0 800.0,800.0 800.0,800.0 800.0,800.0 800.0,800.0 800.0,800.0 800.0,800.0 800.0,800.0 800.0,800.0 800.0,800.0 800.0,800.0 800.0,800.0 800.0,800.0 800.0,800.0 800.0,800.0 800.0,800.0 800.0,800.0 934.4,800.0" stroke="#bcccdc" stroke-width="1" /><polygon fill="rgb(117,174,103)" fill-opacity="0.35" points="895.035151391472,704.964848608528 891.7351424485871,701.7756464010201 888.3281744331355,698.7009693960026 884.8182197174215,695.744402529326 881.2093707516351,692.9093930257025 877.5058352922381,690.1992463793966 873.7119314959084,687.6171225001668 869.8320828847623,685.1660320289519 865.8708131887255,682.8488328275982 861.8327410710668,680.6682266467208 857.7225747432431,678.6267559755828 853.5451064753348,676.7268010776671 849.3052070084748,674.9705772153952 845.0078198757806,673.3601320672306 840.6579556384166,671.8973433401768 836.260686043504,670.5839165804557 831.8211381106904,669.4213831849166 827.344488154274,668.4110986154958 822.8359557478528,667.5542408188087 818.3007976385355,666.8518088527171 813.7443016178095,666.304621721472 809.1717803562118,665.9133174207916 804.588565208994,665.6783521939863 800.0,665.6 800.0,800.0 800.0,800.0 800.0,800.0 800.0,800.0 800.0,800.0 800.0,800.0 800.0,800.0 800.0,800.0 800.0,800.0 800.0,800.0 800.0,800.0 800.0,800.0 800.0,800.0 800.0,800.0 800.0,800.0 800.0,800.0 800.0,800.0 800.0,800.0 800.0,800.0 800.0,800.0 800.0,800.0 800.0,800.0 800.0,800.0 800.0,800.0 895.035151391472,704.964848608528" stroke="#bcccdc" stroke-width="1" /><polygon fill="rgb(117,174,103)" fill-opacity="0.35" points="800.0,665.6 795.411434791006,665.6783521939863 790.8282196437882,665.9133174207916 786.2556983821906,666.304621721472 781.6992023614645,666.8518088527171 777.1640442521472,667.5542408188087 772.6555118457261,668.4110986154958 768.1788618893096,669.4213831849166 763.739313956496,670.5839165804557 759.3420443615835,671.8973433401768 754.9921801242194,673.3601320672306 750.6947929915252,674.9705772153952 746.4548935246652,676.7268010776671 742.277425256757,678.6267559755828 738.1672589289332,680.6682266467208 734.1291868112745,682.8488328275982 730.1679171152377,685.1660320289519 726.2880685040916,687.6171225001668 722.4941647077619,690.1992463793966 718.7906292483649,692.9093930257025 715.1817802825785,695.744402529326 711.6718255668645,698.7009693960026 708.2648575514129,701.7756464010201 704.964848608528,704.964848608528 800.0,800.0 800.0,800.0 800.0,800.0 800.0,800.0 800.0,800.0 800.0,800.0 800.0,800.0 800.0,800.0 800.0,800.0 800.0,800.0 800.0,800.0 800.0,800.0 800.0,800.0 800.0,800.0 800.0,800.0 800.0,800.0 800.0,800.0 800.0,800.0 800.0,800.0 800.0,800.0 800.0,800.0 800.0,800.0 800.0,800.0 800.0,800.0 800.0,665.6" stroke="#bcccdc" stroke-width="1" /><polygon fill="rgb(117,174,103)" fill-opacity="0.35" points="704.964848608528,704.964848608528 701.7756464010201,708.2648575514129 698.7009693960026,711.6718255668645 695.744402529326,715.1817802825785 692.9093930257025,718.7906292483649 690.1992463793966,722.4941647077619 687.6171225001668,726.2880685040916 685.1660320289519,730.1679171152377 682.8488328275982,734.1291868112745 680.6682266467208,738.1672589289332 678.6267559755828,742.2774252567569 676.7268010776671,746.4548935246652 674.9705772153952,750.6947929915252 673.3601320672306,754.9921801242194 671.8973433401768,759.3420443615834 670.5839165804558,763.739313956496 669.4213831849166,768.1788618893095 668.4110986154958,772.655511845726 667.5542408188087,777.1640442521472 666.8518088527171,781.6992023614645 666.304621721472,786.2556983821906 665.9133174207916,790.8282196437882 665.6783521939863,795.4114347910058 665.6,800.0 800.0,800.0 800.0,800.0 800.0,800.0 800.0,800.0 800.0,800.0 800.0,800.0 800.0,800.0 800.0,800.0 800.0,800.0 800.0,800.0 800.0,800.0 800.0,800.0 800.0,800.0 800.0,800.0 800.0,800.0 800.0,800.0 800.0,800.0 800.0,800.0 800.0,800.0 800.0,800.0 800.0,800.0 800.0,800.0 800.0,800.0 800.0,800.0 704.964848608528,704.964848608528" stroke="#bcccdc" stroke-width="1" /><polygon fill="rgb(117,174,103)" fill-opacity="0.35" points="665.6,800.0 665.6783521939863,804.588565208994 665.9133174207916,809.1717803562118 666.304621721472,813.7443016178094 666.8518088527171,818.3007976385355 667.5542408188087,822.8359557478528 668.4110986154958,827.344488154274 669.4213831849166,831.8211381106904 670.5839165804557,836.260686043504 671.8973433401768,840.6579556384165 673.3601320672306,845.0078198757806 674.9705772153952,849.3052070084748 676.7268010776671,853.5451064753348 678.6267559755828,857.722574743243 680.6682266467208,861.8327410710668 682.8488328275982,865.8708131887255 685.1660320289519,869.8320828847623 687.6171225001668,873.7119314959084 690.1992463793966,877.5058352922381 692.9093930257025,881.2093707516351 695.744402529326,884.8182197174215 698.7009693960026,888.3281744331355 701.7756464010201,891.7351424485871 704.964848608528,895.035151391472 800.0,800.0 800.0,800.0 800.0,800.0 800.0,800.0 800.0,800.0 800.0,800.0 800.0,800.0 800.0,800.0 800.0,800.0 800.0,800.0 800.0,800.0 800.0,800.0 800.0,800.0 800.0,800.0 800.0,800.0 800.0,800.0 800.0,800.0 800.0,800.0 800.0,800.0 800.0,800.0 800.0,800.0 800.0,800.0 800.0,800.0 800.0,800.0 665.6,800.0" stroke="#bcccdc" stroke-width="1" /><polygon fill="rgb(117,174,103)" fill-opacity="0.35" points="704.964848608528,895.035151391472 708.2648575514129,898.2243535989799 711.6718255668645,901.2990306039974 715.1817802825785,904.255597470674 718.7906292483649,907.0906069742975 722.4941647077619,909.8007536206034 726.2880685040915,912.3828774998331 730.1679171152377,914.8339679710481 734.1291868112744,917.1511671724018 738.167258928933,919.3317733532792 742.2774252567569,921.3732440244172 746.4548935246651,923.2731989223329 750.6947929915252,925.0294227846048 754.9921801242194,926.6398679327694 759.3420443615834,928.1026566598232 763.739313956496,929.4160834195442 768.1788618893095,930.5786168150834 772.655511845726,931.5889013845042 777.1640442521472,932.4457591811913 781.6992023614644,933.1481911472829 786.2556983821906,933.695378278528 790.8282196437882,934.0866825792084 795.411434791006,934.3216478060137 800.0,934.4 800.0,800.0 800.0,800.0 800.0,800.0 800.0,800.0 800.0,800.0 800.0,800.0 800.0,800.0 800.0,800.0 800.0,800.0 800.0,800.0 800.0,800.0 800.0,800.0 800.0,800.0 800.0,800.0 800.0,800.0 800.0,800.0 800.0,800.0 800.0,800.0 800.0,800.0 800.0,800.0 800.0,800.0 800.0,800.0 800.0,800.0 800.0,800.0 704.964848608528,895.035151391472" stroke="#bcccdc" stroke-width="1" /><polygon fill="rgb(117,174,103)" fill-opacity="0.35" points="800.0,934.4 804.588565208994,934.3216478060137 809.1717803562118,934.0866825792084 813.7443016178094,933.695378278528 818.3007976385355,933.1481911472829 822.8359557478527,932.4457591811913 827.3444881542739,931.5889013845042 831.8211381106904,930.5786168150834 836.260686043504,929.4160834195443 840.6579556384166,928.1026566598232 845.0078198757806,926.6398679327694 849.3052070084748,925.0294227846048 853.5451064753348,923.2731989223329 857.722574743243,921.3732440244172 861.8327410710668,919.3317733532792 865.8708131887255,917.1511671724018 869.8320828847623,914.8339679710481 873.7119314959084,912.3828774998332 877.5058352922381,909.8007536206035 881.209370751635,907.0906069742977 884.8182197174215,904.255597470674 888.3281744331355,901.2990306039974 891.7351424485871,898.2243535989799 895.035151391472,895.035151391472 800.0,800.0 800.0,800.0 800.0,800.0 800.0,800.0 800.0,800.0 800.0,800.0 800.0,800.0 800.0,800.0 800.0,800.0 800.0,800.0 800.0,800.0 800.0,800.0 800.0,800.0 800.0,800.0 800.0,800.0 800.0,800.0 800.0,800.0 800.0,800.0 800.0,800.0 800.0,800.0 800.0,800.0 800.0,800.0 800.0,800.0 800.0,800.0 800.0,934.4" stroke="#bcccdc" stroke-width="1" /><polygon fill="rgb(117,174,103)" fill-opacity="0.35" points="895.035151391472,895.035151391472 898.2243535989799,891.7351424485871 901.2990306039974,888.3281744331355 904.255597470674,884.8182197174215 907.0906069742975,881.2093707516351 909.8007536206034,877.5058352922382 912.3828774998331,873.7119314959085 914.8339679710481,869.8320828847623 917.1511671724018,865.8708131887256 919.3317733532792,861.832741071067 921.3732440244172,857.7225747432431 923.2731989223329,853.5451064753349 925.0294227846048,849.3052070084748 926.6398679327694,845.0078198757806 928.1026566598232,840.6579556384166 929.4160834195442,836.260686043504 930.5786168150834,831.8211381106905 931.5889013845042,827.344488154274 932.4457591811913,822.8359557478528 933.1481911472829,818.3007976385356 933.695378278528,813.7443016178095 934.0866825792084,809.1717803562118 934.3216478060137,804.588565208994 934.4,800.0 800.0,800.0 800.0,800.0 800.0,800.0 800.0,800.0 800.0,800.0 800.0,800.0 800.0,800.0 800.0,800.0 800.0,800.0 800.0,800.0 800.0,800.0 800.0,800.0 800.0,800.0 800.0,800.0 800.0,800.0 800.0,800.0 800.0,800.0 800.0,800.0 800.0,800.0 800.0,800.0 800.0,800.0 800.0,800.0 800.0,800.0 800.0,800.0 895.035151391472,895.035151391472" stroke="#bcccdc" stroke-width="1" /><polygon fill="rgb(245,179,83)" fill-opacity="0.35" points="1068.8,800.0 1068.6432956120275,790.8228695820118 1068.1733651584168,781.6564392875764 1067.390756557056,772.5113967643812 1066.2963822945658,763.398404722929 1064.8915183623826,754.3280885042944 1063.1778027690084,745.3110236914521 1061.1572336301667,736.3577237786192 1058.8321668390886,727.4786279129919 1056.2053133196464,718.6840887231668 1053.279735865539,709.984360248439 1050.0588455692096,701.3895859830504 1046.5463978446658,692.9097870493304 1042.7464880488344,684.554850513514 1038.6635467065585,676.3345178578663 1034.3023343448035,668.258373622549 1029.6679359420962,660.3358342304755 1024.7657549996663,652.5761370081831 1019.6015072412068,644.9883294155237 1014.1812139485951,637.5812584967298 1008.5111949413481,630.3635605651571 1002.5980612079946,623.343651133729 996.4487071979597,616.5297151028258 990.0703027829439,609.9296972170561 895.035151391472,704.964848608528 898.2243535989799,708.2648575514129 901.2990306039974,711.6718255668645 904.255597470674,715.1817802825785 907.0906069742975,718.7906292483649 909.8007536206034,722.4941647077619 912.3828774998332,726.2880685040916 914.8339679710481,730.1679171152377 917.1511671724018,734.1291868112745 919.3317733532792,738.1672589289332 921.3732440244172,742.2774252567569 923.2731989223329,746.4548935246652 925.0294227846048,750.6947929915252 926.6398679327694,754.9921801242194 928.1026566598232,759.3420443615835 929.4160834195443,763.739313956496 930.5786168150834,768.1788618893096 931.5889013845042,772.655511845726 932.4457591811913,777.1640442521472 933.1481911472829,781.6992023614645 933.695378278528,786.2556983821906 934.0866825792084,790.8282196437882 934.3216478060137,795.411434791006 934.4,800.0 1068.8,800.0" stroke="#bcccdc" stroke-width="1" /><polygon fill="rgb(245,179,83)" fill-opacity="0.35" points="990.0703027829439,609.9296972170561 983.4702848971742,603.5512928020403 976.656348866271,597.4019387920054 969.6364394348429,591.4888050586519 962.4187415032702,585.8187860514049 955.0116705844763,580.3984927587932 947.4238629918169,575.2342450003338 939.6641657695245,570.3320640579038 931.741626377451,565.6976656551965 923.6654821421337,561.3364532934415 915.445149486486,557.2535119511656 907.0902129506698,553.4536021553342 898.6104140169496,549.9411544307904 890.0156397515611,546.7202641344611 881.3159112768332,543.7946866803536 872.5213720870081,541.1678331609115 863.6422762213809,538.8427663698333 854.688976308548,536.8221972309916 845.6719114957057,535.1084816376175 836.601595277071,533.7036177054342 827.4886032356188,532.609243442944 818.3435607124236,531.8266348415831 809.1771304179882,531.3567043879725 800.0,531.2 800.0,665.6 804.588565208994,665.6783521939863 809.1717803562118,665.9133174207916 813.7443016178095,666.304621721472 818.3007976385355,666.8518088527171 822.8359557478528,667.5542408188087 827.344488154274,668.4110986154958 831.8211381106904,669.4213831849166 836.260686043504,670.5839165804557 840.6579556384166,671.8973433401768 845.0078198757806,673.3601320672306 849.3052070084748,674.9705772153952 853.5451064753348,676.7268010776671 857.7225747432431,678.6267559755828 861.8327410710668,680.6682266467208 865.8708131887255,682.8488328275982 869.8320828847623,685.1660320289519 873.7119314959084,687.6171225001668 877.5058352922381,690.1992463793966 881.2093707516351,692.9093930257025 884.8182197174215,695.744402529326 888.3281744331355,698.7009693960026 891.7351424485871,701.7756464010201 895.035151391472,704.964848608528 990.0703027829439,609.9296972170561" stroke="#bcccdc" stroke-width="1" /><polygon fill="rgb(245,179,83)" fill-opacity="0.35" points="800.0,531.2 790.8228695820118,531.3567043879725 781.6564392875765,531.8266348415831 772.5113967643812,532.609243442944 763.398404722929,533.7036177054342 754.3280885042944,535.1084816376175 745.3110236914521,536.8221972309916 736.3577237786192,538.8427663698333 727.4786279129919,541.1678331609115 718.6840887231668,543.7946866803536 709.9843602484389,546.7202641344611 701.3895859830504,549.9411544307904 692.9097870493304,553.4536021553342 684.554850513514,557.2535119511656 676.3345178578663,561.3364532934415 668.258373622549,565.6976656551965 660.3358342304755,570.3320640579038 652.5761370081832,575.2342450003338 644.9883294155237,580.3984927587932 637.5812584967298,585.8187860514049 630.3635605651571,591.4888050586519 623.343651133729,597.4019387920052 616.5297151028258,603.5512928020402 609.9296972170561,609.9296972170561 704.964848608528,704.964848608528 708.2648575514129,701.7756464010201 711.6718255668645,698.7009693960026 715.1817802825785,695.744402529326 718.7906292483649,692.9093930257025 722.4941647077619,690.1992463793966 726.2880685040916,687.6171225001668 730.1679171152377,685.1660320289519 734.1291868112745,682.8488328275982 738.1672589289332,680.6682266467208 742.277425256757,678.6267559755828 746.4548935246652,676.7268010776671 750.6947929915252,674.9705772153952 754.9921801242194,673.3601320672306 759.3420443615835,671.8973433401768 763.739313956496,670.5839165804557 768.1788618893096,669.4213831849166 772.655511845726,668.4110986154958 777.1640442521472,667.5542408188087 781.6992023614645,666.8518088527171 786.2556983821906,666.304621721472 790.8282196437882,665.9133174207916 795.411434791006,665.6783521939863 800.0,665.6 800.0,531.2" stroke="#bcccdc" stroke-width="1" /><polygon fill="rgb(245,179,83)" fill-opacity="0.35" points="609.9296972170561,609.9296972170561 603.5512928020403,616.5297151028258 597.4019387920054,623.343651133729 591.488805058652,630.363560565157 585.8187860514049,637.5812584967298 580.3984927587932,644.9883294155237 575.2342450003338,652.5761370081831 570.3320640579038,660.3358342304755 565.6976656551965,668.2583736225489 561.3364532934415,676.3345178578663 557.2535119511656,684.554850513514 553.4536021553342,692.9097870493304 549.9411544307904,701.3895859830503 546.7202641344611,709.9843602484389 543.7946866803536,718.6840887231668 541.1678331609116,727.4786279129919 538.8427663698333,736.3577237786191 536.8221972309916,745.311023691452 535.1084816376175,754.3280885042943 533.7036177054342,763.398404722929 532.609243442944,772.5113967643812 531.8266348415831,781.6564392875764 531.3567043879725,790.8228695820118 531.2,800.0 665.6,800.0 665.6783521939863,795.4114347910058 665.9133174207916,790.8282196437882 666.304621721472,786.2556983821906 666.8518088527171,781.6992023614645 667.5542408188087,777.1640442521472 668.4110986154958,772.655511845726 669.4213831849166,768.1788618893095 670.5839165804558,763.739313956496 671.8973433401768,759.3420443615834 673.3601320672306,754.9921801242194 674.9705772153952,750.6947929915252 676.7268010776671,746.4548935246652 678.6267559755828,742.2774252567569 680.6682266467208,738.1672589289332 682.8488328275982,734.1291868112745 685.1660320289519,730.1679171152377 687.6171225001668,726.2880685040916 690.1992463793966,722.4941647077619 692.9093930257025,718.7906292483649 695.744402529326,715.1817802825785 698.7009693960026,711.6718255668645 701.7756464010201,708.2648575514129 704.964848608528,704.964848608528 609.9296972170561,609.9296972170561" stroke="#bcccdc" stroke-width="1" /><polygon fill="rgb(245,179,83)" fill-opacity="0.35" points="531.2,800.0 531.3567043879725,809.1771304179881 531.8266348415831,818.3435607124236 532.609243442944,827.4886032356187 533.7036177054342,836.601595277071 535.1084816376175,845.6719114957056 536.8221972309916,854.6889763085479 538.8427663698333,863.6422762213809 541.1678331609115,872.5213720870081 543.7946866803536,881.3159112768332 546.7202641344611,890.015639751561 549.9411544307904,898.6104140169496 553.4536021553342,907.0902129506696 557.2535119511656,915.445149486486 561.3364532934415,923.6654821421337 565.6976656551965,931.741626377451 570.3320640579038,939.6641657695245 575.2342450003337,947.4238629918168 580.3984927587932,955.0116705844762 585.8187860514049,962.4187415032702 591.4888050586519,969.6364394348429 597.4019387920052,976.656348866271 603.5512928020402,983.4702848971742 609.929697217056,990.0703027829439 704.964848608528,895.035151391472 701.7756464010201,891.7351424485871 698.7009693960026,888.3281744331355 695.744402529326,884.8182197174215 692.9093930257025,881.2093707516351 690.1992463793966,877.5058352922381 687.6171225001668,873.7119314959084 685.1660320289519,869.8320828847623 682.8488328275982,865.8708131887255 680.6682266467208,861.8327410710668 678.6267559755828,857.722574743243 676.7268010776671,853.5451064753348 674.9705772153952,849.3052070084748 673.3601320672306,845.0078198757806 671.8973433401768,840.6579556384165 670.5839165804557,836.260686043504 669.4213831849166,831.8211381106904 668.4110986154958,827.344488154274 667.5542408188087,822.8359557478528 666.8518088527171,818.3007976385355 666.304621721472,813.7443016178094 665.9133174207916,809.1717803562118 665.6783521939863,804.588565208994 665.6,800.0 531.2,800.0" stroke="#bcccdc" stroke-width="1" /><polygon fill="rgb(245,179,83)" fill-opacity="0.35" points="609.929697217056,990.0703027829439 616.5297151028258,996.4487071979597 623.343651133729,1002.5980612079946 630.363560565157,1008.511194941348 637.5812584967298,1014.1812139485952 644.9883294155237,1019.6015072412068 652.576137008183,1024.7657549996661 660.3358342304755,1029.6679359420962 668.2583736225489,1034.3023343448035 676.3345178578661,1038.6635467065585 684.554850513514,1042.7464880488344 692.9097870493302,1046.5463978446658 701.3895859830504,1050.0588455692096 709.9843602484389,1053.279735865539 718.6840887231667,1056.2053133196464 727.4786279129919,1058.8321668390884 736.3577237786191,1061.1572336301667 745.3110236914521,1063.1778027690084 754.3280885042943,1064.8915183623826 763.3984047229287,1066.2963822945658 772.5113967643812,1067.390756557056 781.6564392875763,1068.1733651584168 790.8228695820119,1068.6432956120275 800.0,1068.8 800.0,934.4 795.411434791006,934.3216478060137 790.8282196437882,934.0866825792084 786.2556983821906,933.695378278528 781.6992023614644,933.1481911472829 777.1640442521472,932.4457591811913 772.655511845726,931.5889013845042 768.1788618893095,930.5786168150834 763.739313956496,929.4160834195442 759.3420443615834,928.1026566598232 754.9921801242194,926.6398679327694 750.6947929915252,925.0294227846048 746.4548935246651,923.2731989223329 742.2774252567569,921.3732440244172 738.167258928933,919.3317733532792 734.1291868112744,917.1511671724018 730.1679171152377,914.8339679710481 726.2880685040915,912.3828774998331 722.4941647077619,909.8007536206034 718.7906292483649,907.0906069742975 715.1817802825785,904.255597470674 711.6718255668645,901.2990306039974 708.2648575514129,898.2243535989799 704.964848608528,895.035151391472 609.929697217056,990.0703027829439" stroke="#bcccdc" stroke-width="1" /><polygon fill="rgb(245,179,83)" fill-opacity="0.35" points="800.0,1068.8 809.177130417988,1068.6432956120275 818.3435607124236,1068.1733651584168 827.4886032356187,1067.390756557056 836.6015952770712,1066.2963822945658 845.6719114957056,1064.8915183623826 854.6889763085478,1063.1778027690084 863.6422762213809,1061.1572336301667 872.5213720870081,1058.8321668390886 881.3159112768333,1056.2053133196464 890.015639751561,1053.279735865539 898.6104140169494,1050.0588455692096 907.0902129506698,1046.5463978446658 915.4451494864859,1042.7464880488344 923.6654821421338,1038.6635467065585 931.741626377451,1034.3023343448035 939.6641657695245,1029.6679359420962 947.4238629918169,1024.7657549996663 955.0116705844762,1019.6015072412068 962.4187415032701,1014.1812139485952 969.6364394348429,1008.5111949413481 976.656348866271,1002.5980612079948 983.4702848971742,996.4487071979597 990.0703027829439,990.070302782944 895.035151391472,895.035151391472 891.7351424485871,898.2243535989799 888.3281744331355,901.2990306039974 884.8182197174215,904.255597470674 881.209370751635,907.0906069742977 877.5058352922381,909.8007536206035 873.7119314959084,912.3828774998332 869.8320828847623,914.8339679710481 865.8708131887255,917.1511671724018 861.8327410710668,919.3317733532792 857.722574743243,921.3732440244172 853.5451064753348,923.2731989223329 849.3052070084748,925.0294227846048 845.0078198757806,926.6398679327694 840.6579556384166,928.1026566598232 836.260686043504,929.4160834195443 831.8211381106904,930.5786168150834 827.3444881542739,931.5889013845042 822.8359557478527,932.4457591811913 818.3007976385355,933.1481911472829 813.7443016178094,933.695378278528 809.1717803562118,934.0866825792084 804.588565208994,934.3216478060137 800.0,934.4 800.0,1068.8" stroke="#bcccdc" stroke-width="1" /><polygon fill="rgb(245,179,83)" fill-opacity="0.35" points="990.0703027829439,990.070302782944 996.4487071979597,983.4702848971743 1002.5980612079946,976.656348866271 1008.511194941348,969.636439434843 1014.1812139485952,962.4187415032702 1019.6015072412067,955.0116705844763 1024.7657549996661,947.423862991817 1029.6679359420962,939.6641657695245 1034.3023343448035,931.7416263774511 1038.6635467065585,923.6654821421339 1042.7464880488344,915.4451494864861 1046.5463978446658,907.0902129506699 1050.0588455692096,898.6104140169496 1053.279735865539,890.0156397515611 1056.2053133196464,881.3159112768334 1058.8321668390884,872.5213720870081 1061.1572336301667,863.642276221381 1063.1778027690084,854.6889763085479 1064.8915183623826,845.6719114957057 1066.2963822945658,836.6015952770713 1067.390756557056,827.4886032356188 1068.1733651584168,818.3435607124237 1068.6432956120275,809.1771304179881 1068.8,800.0000000000001 934.4,800.0 934.3216478060137,804.588565208994 934.0866825792084,809.1717803562118 933.695378278528,813.7443016178095 933.1481911472829,818.3007976385356 932.4457591811913,822.8359557478528 931.5889013845042,827.344488154274 930.5786168150834,831.8211381106905 929.4160834195442,836.260686043504 928.1026566598232,840.6579556384166 926.6398679327694,845.0078198757806 925.0294227846048,849.3052070084748 923.2731989223329,853.5451064753349 921.3732440244172,857.7225747432431 919.3317733532792,861.832741071067 917.1511671724018,865.8708131887256 914.8339679710481,869.8320828847623 912.3828774998331,873.7119314959085 909.8007536206034,877.5058352922382 907.0906069742975,881.2093707516351 904.255597470674,884.8182197174215 901.2990306039974,888.3281744331355 898.2243535989799,891.7351424485871 895.035151391472,895.035151391472 990.0703027829439,990.070302782944" stroke="#bcccdc" stroke-width="1" /><polygon fill="rgb(231,111,81)" fill-opacity="0.35" points="1203.2,800.0 1202.9649434180415,786.2343043730177 1202.2600477376254,772.4846589313647 1201.0861348355838,758.7670951465718 1199.4445734418487,745.0976070843934 1197.3372775435737,731.4921327564416 1194.7667041535126,717.9665355371781 1191.73585044525,704.5365856679286 1188.2482502586327,691.2179418694878 1184.3079699794696,678.0261330847502 1179.9196037983083,664.9765403726584 1175.0882683538143,652.0843789745757 1169.8195967669985,639.3646805739954 1164.1197320732515,626.832275770271 1157.9953200598377,614.5017767867994 1151.4535015172053,602.3875604338234 1144.5019039131441,590.5037513457132 1137.1486324994994,578.8642055122747 1129.4022608618102,567.4824941232856 1121.2718209228926,556.3718877450947 1112.7667924120221,545.5453408477356 1103.897091811992,535.0154767005935 1094.6730607969396,524.7945726542387 1085.105454174416,514.894545825584 990.0703027829439,609.9296972170561 996.4487071979597,616.5297151028258 1002.5980612079946,623.343651133729 1008.5111949413481,630.3635605651571 1014.1812139485951,637.5812584967298 1019.6015072412068,644.9883294155237 1024.7657549996663,652.5761370081831 1029.6679359420962,660.3358342304755 1034.3023343448035,668.258373622549 1038.6635467065585,676.3345178578663 1042.7464880488344,684.554850513514 1046.5463978446658,692.9097870493304 1050.0588455692096,701.3895859830504 1053.279735865539,709.9843602484389 1056.2053133196464,718.6840887231668 1058.8321668390886,727.4786279129919 1061.1572336301667,736.3577237786192 1063.1778027690084,745.3110236914521 1064.8915183623826,754.3280885042944 1066.2963822945658,763.398404722929 1067.390756557056,772.5113967643812 1068.1733651584168,781.6564392875764 1068.6432956120275,790.8228695820119 1068.8,800.0 1203.2,800.0" stroke="#bcccdc" stroke-width="1" /><polygon fill="rgb(231,111,81)" fill-opacity="0.35" points="1085.105454174416,514.894545825584 1075.2054273457613,505.3269392030604 1064.9845232994066,496.10290818800803 1054.4546591522644,487.233207587978 1043.6281122549053,478.7281790771073 1032.5175058767145,470.5977391381898 1021.1357944877253,462.8513675005006 1009.4962486542868,455.4980960868558 997.6124395661766,448.54649848279473 985.4982232132006,442.00467994016236 973.167724229729,435.88026792674845 960.6353194260046,430.1804032330014 947.9156210254243,424.9117316461857 935.0234596273417,420.0803962016916 921.9738669152498,415.69203002053035 908.7820581305122,411.75174974136735 895.4634143320714,408.26414955475 882.033464462822,405.23329584648747 868.5078672435584,402.66272245642625 854.9023929156066,400.55542655815145 841.2329048534283,398.9138651644162 827.5153410686354,397.73995226237463 813.7656956269823,397.03505658195866 800.0,396.8 800.0,531.2 809.1771304179882,531.3567043879725 818.3435607124236,531.8266348415831 827.4886032356188,532.609243442944 836.601595277071,533.7036177054342 845.6719114957057,535.1084816376175 854.6889763085479,536.8221972309916 863.6422762213809,538.8427663698333 872.5213720870081,541.1678331609115 881.3159112768332,543.7946866803536 890.0156397515611,546.7202641344611 898.6104140169496,549.9411544307904 907.0902129506698,553.4536021553342 915.445149486486,557.2535119511656 923.6654821421337,561.3364532934415 931.741626377451,565.6976656551965 939.6641657695245,570.3320640579038 947.4238629918169,575.2342450003338 955.0116705844763,580.3984927587932 962.4187415032702,585.8187860514049 969.6364394348429,591.4888050586519 976.656348866271,597.4019387920054 983.4702848971742,603.5512928020403 990.0703027829439,609.9296972170561 1085.105454174416,514.894545825584" stroke="#bcccdc" stroke-width="1" /><polygon fill="rgb(231,111,81)" fill-opacity="0.35" points="800.0,396.8 786.2343043730177,397.03505658195866 772.4846589313647,397.73995226237463 758.7670951465718,398.9138651644162 745.0976070843934,400.55542655815145 731.4921327564416,402.66272245642625 717.9665355371781,405.2332958464874 704.5365856679286,408.26414955475 691.2179418694878,411.75174974136735 678.0261330847503,415.69203002053035 664.9765403726584,420.08039620169154 652.0843789745757,424.9117316461857 639.3646805739954,430.18040323300136 626.832275770271,435.88026792674845 614.5017767867995,442.00467994016236 602.3875604338234,448.54649848279473 590.5037513457132,455.49809608685575 578.8642055122748,462.85136750050054 567.4824941232856,470.59773913818975 556.3718877450947,478.7281790771073 545.5453408477355,487.233207587978 535.0154767005936,496.1029081880079 524.7945726542387,505.3269392030603 514.8945458255841,514.894545825584 609.9296972170561,609.9296972170561 616.5297151028258,603.5512928020402 623.343651133729,597.4019387920052 630.3635605651571,591.4888050586519 637.5812584967298,585.8187860514049 644.9883294155237,580.3984927587932 652.5761370081832,575.2342450003338 660.3358342304755,570.3320640579038 668.258373622549,565.6976656551965 676.3345178578663,561.3364532934415 684.554850513514,557.2535119511656 692.9097870493304,553.4536021553342 701.3895859830504,549.9411544307904 709.9843602484389,546.7202641344611 718.6840887231668,543.7946866803536 727.4786279129919,541.1678331609115 736.3577237786192,538.8427663698333 745.311023691452,536.8221972309916 754.3280885042944,535.1084816376175 763.398404722929,533.7036177054342 772.5113967643812,532.609243442944 781.6564392875765,531.8266348415831 790.8228695820118,531.3567043879725 800.0,531.2 800.0,396.8" stroke="#bcccdc" stroke-width="1" /><polygon fill="rgb(231,111,81)" fill-opacity="0.35" points="514.8945458255841,514.894545825584 505.32693920306036,524.7945726542387 496.102908188008,535.0154767005936 487.233207587978,545.5453408477355 478.7281790771073,556.3718877450947 470.5977391381898,567.4824941232855 462.8513675005006,578.8642055122747 455.4980960868558,590.5037513457132 448.54649848279473,602.3875604338234 442.00467994016236,614.5017767867994 435.88026792674845,626.832275770271 430.18040323300136,639.3646805739954 424.91173164618573,652.0843789745754 420.0803962016916,664.9765403726583 415.69203002053035,678.0261330847502 411.75174974136735,691.2179418694878 408.26414955475,704.5365856679285 405.23329584648747,717.966535537178 402.66272245642625,731.4921327564416 400.55542655815145,745.0976070843933 398.9138651644162,758.7670951465718 397.73995226237463,772.4846589313645 397.03505658195866,786.2343043730176 396.8,800.0 531.2,800.0 531.3567043879725,790.8228695820118 531.8266348415831,781.6564392875764 532.609243442944,772.5113967643812 533.7036177054342,763.398404722929 535.1084816376175,754.3280885042943 536.8221972309916,745.311023691452 538.8427663698333,736.3577237786191 541.1678331609116,727.4786279129919 543.7946866803536,718.6840887231668 546.7202641344611,709.9843602484389 549.9411544307904,701.3895859830503 553.4536021553342,692.9097870493304 557.2535119511656,684.554850513514 561.3364532934415,676.3345178578663 565.6976656551965,668.2583736225489 570.3320640579038,660.3358342304755 575.2342450003338,652.5761370081831 580.3984927587932,644.9883294155237 585.8187860514049,637.5812584967298 591.488805058652,630.363560565157 597.4019387920054,623.343651133729 603.5512928020403,616.5297151028258 609.9296972170561,609.9296972170561 514.8945458255841,514.894545825584" stroke="#bcccdc" stroke-width="1" /><polygon fill="rgb(231,111,81)" fill-opacity="0.35" points="396.8,800.0 397.03505658195866,813.7656956269823 397.73995226237463,827.5153410686354 398.9138651644162,841.2329048534281 400.55542655815145,854.9023929156066 402.66272245642625,868.5078672435584 405.2332958464874,882.0334644628219 408.26414955475,895.4634143320714 411.75174974136735,908.782058130512 415.69203002053035,921.9738669152497 420.08039620169154,935.0234596273416 424.9117316461857,947.9156210254243 430.1804032330013,960.6353194260045 435.8802679267484,973.167724229729 442.0046799401623,985.4982232132005 448.5464984827947,997.6124395661765 455.49809608685575,1009.4962486542867 462.8513675005005,1021.1357944877252 470.59773913818975,1032.5175058767143 478.7281790771073,1043.6281122549053 487.233207587978,1054.4546591522644 496.10290818800786,1064.9845232994064 505.3269392030603,1075.2054273457613 514.8945458255839,1085.1054541744159 609.929697217056,990.0703027829439 603.5512928020402,983.4702848971742 597.4019387920052,976.656348866271 591.4888050586519,969.6364394348429 585.8187860514049,962.4187415032702 580.3984927587932,955.0116705844762 575.2342450003337,947.4238629918168 570.3320640579038,939.6641657695245 565.6976656551965,931.741626377451 561.3364532934415,923.6654821421337 557.2535119511656,915.445149486486 553.4536021553342,907.0902129506696 549.9411544307904,898.6104140169496 546.7202641344611,890.015639751561 543.7946866803536,881.3159112768332 541.1678331609115,872.5213720870081 538.8427663698333,863.6422762213809 536.8221972309916,854.6889763085479 535.1084816376175,845.6719114957056 533.7036177054342,836.601595277071 532.609243442944,827.4886032356187 531.8266348415831,818.3435607124236 531.3567043879725,809.1771304179881 531.2,800.0 396.8,800.0" stroke="#bcccdc" stroke-width="1" /><polygon fill="rgb(231,111,81)" fill-opacity="0.35" points="514.8945458255839,1085.1054541744159 524.7945726542387,1094.6730607969396 535.0154767005935,1103.897091811992 545.5453408477354,1112.766792412022 556.3718877450948,1121.2718209228929 567.4824941232855,1129.4022608618102 578.8642055122746,1137.1486324994994 590.5037513457132,1144.5019039131441 602.3875604338234,1151.4535015172053 614.5017767867993,1157.9953200598375 626.8322757702709,1164.1197320732515 639.3646805739953,1169.8195967669985 652.0843789745757,1175.0882683538143 664.9765403726583,1179.9196037983083 678.02613308475,1184.3079699794696 691.2179418694877,1188.2482502586327 704.5365856679285,1191.73585044525 717.9665355371781,1194.7667041535126 731.4921327564415,1197.3372775435737 745.0976070843932,1199.4445734418484 758.7670951465718,1201.0861348355838 772.4846589313645,1202.2600477376254 786.2343043730178,1202.9649434180415 799.9999999999999,1203.2 800.0,1068.8 790.8228695820119,1068.6432956120275 781.6564392875763,1068.1733651584168 772.5113967643812,1067.390756557056 763.3984047229287,1066.2963822945658 754.3280885042943,1064.8915183623826 745.3110236914521,1063.1778027690084 736.3577237786191,1061.1572336301667 727.4786279129919,1058.8321668390884 718.6840887231667,1056.2053133196464 709.9843602484389,1053.279735865539 701.3895859830504,1050.0588455692096 692.9097870493302,1046.5463978446658 684.554850513514,1042.7464880488344 676.3345178578661,1038.6635467065585 668.2583736225489,1034.3023343448035 660.3358342304755,1029.6679359420962 652.576137008183,1024.7657549996661 644.9883294155237,1019.6015072412068 637.5812584967298,1014.1812139485952 630.363560565157,1008.511194941348 623.343651133729,1002.5980612079946 616.5297151028258,996.4487071979597 609.929697217056,990.0703027829439 514.8945458255839,1085.1054541744159" stroke="#bcccdc" stroke-width="1" /><polygon fill="rgb(231,111,81)" fill-opacity="0.35" points="799.9999999999999,1203.2 813.765695626982,1202.9649434180415 827.5153410686353,1202.2600477376254 841.2329048534281,1201.0861348355838 854.9023929156067,1199.4445734418487 868.5078672435584,1197.3372775435737 882.0334644628217,1194.7667041535126 895.4634143320714,1191.73585044525 908.782058130512,1188.2482502586327 921.9738669152498,1184.3079699794696 935.0234596273416,1179.9196037983083 947.9156210254242,1175.0882683538143 960.6353194260046,1169.8195967669985 973.167724229729,1164.1197320732517 985.4982232132006,1157.9953200598377 997.6124395661765,1151.4535015172053 1009.4962486542867,1144.5019039131444 1021.1357944877253,1137.1486324994994 1032.5175058767143,1129.4022608618102 1043.628112254905,1121.2718209228929 1054.4546591522644,1112.766792412022 1064.9845232994064,1103.8970918119921 1075.2054273457613,1094.6730607969396 1085.1054541744159,1085.105454174416 990.0703027829439,990.070302782944 983.4702848971742,996.4487071979597 976.656348866271,1002.5980612079948 969.6364394348429,1008.5111949413481 962.4187415032701,1014.1812139485952 955.0116705844762,1019.6015072412068 947.4238629918169,1024.7657549996663 939.6641657695245,1029.6679359420962 931.741626377451,1034.3023343448035 923.6654821421338,1038.6635467065585 915.4451494864859,1042.7464880488344 907.0902129506698,1046.5463978446658 898.6104140169494,1050.0588455692096 890.015639751561,1053.279735865539 881.3159112768333,1056.2053133196464 872.5213720870081,1058.8321668390886 863.6422762213809,1061.1572336301667 854.6889763085478,1063.1778027690084 845.6719114957056,1064.8915183623826 836.6015952770712,1066.2963822945658 827.4886032356187,1067.390756557056 818.3435607124236,1068.1733651584168 809.177130417988,1068.6432956120275 800.0,1068.8 799.9999999999999,1203.2" stroke="#bcccdc" stroke-width="1" /><polygon fill="rgb(231,111,81)" fill-opacity="0.35" points="1085.1054541744159,1085.105454174416 1094.6730607969394,1075.2054273457616 1103.897091811992,1064.9845232994066 1112.766792412022,1054.4546591522646 1121.2718209228929,1043.6281122549053 1129.4022608618102,1032.5175058767145 1137.1486324994994,1021.1357944877254 1144.5019039131441,1009.4962486542868 1151.4535015172053,997.6124395661766 1157.9953200598375,985.4982232132008 1164.1197320732515,973.1677242297291 1169.8195967669985,960.6353194260047 1175.0882683538143,947.9156210254243 1179.9196037983083,935.0234596273417 1184.3079699794696,921.97386691525 1188.2482502586327,908.7820581305123 1191.73585044525,895.4634143320715 1194.7667041535126,882.0334644628219 1197.3372775435737,868.5078672435585 1199.4445734418484,854.9023929156069 1201.0861348355838,841.2329048534282 1202.2600477376254,827.5153410686355 1202.9649434180415,813.7656956269822 1203.2,800.0000000000001 1068.8,800.0000000000001 1068.6432956120275,809.1771304179881 1068.1733651584168,818.3435607124237 1067.390756557056,827.4886032356188 1066.2963822945658,836.6015952770713 1064.8915183623826,845.6719114957057 1063.1778027690084,854.6889763085479 1061.1572336301667,863.642276221381 1058.8321668390884,872.5213720870081 1056.2053133196464,881.3159112768334 1053.279735865539,890.0156397515611 1050.0588455692096,898.6104140169496 1046.5463978446658,907.0902129506699 1042.7464880488344,915.4451494864861 1038.6635467065585,923.6654821421339 1034.3023343448035,931.7416263774511 1029.6679359420962,939.6641657695245 1024.7657549996661,947.423862991817 1019.6015072412067,955.0116705844763 1014.1812139485952,962.4187415032702 1008.511194941348,969.636439434843 1002.5980612079946,976.656348866271 996.4487071979597,983.4702848971743 990.0703027829439,990.070302782944 1085.1054541744159,1085.105454174416" stroke="#bcccdc" stroke-width="1" /><polygon fill="rgb(244,162,97)" fill-opacity="0.35" points="1337.6,800.0 1337.286591224055,781.6457391640237 1336.3467303168338,763.3128785751529 1334.781513114112,745.0227935287623 1332.5927645891315,726.7968094458579 1329.783036724765,708.6561770085888 1326.3556055380168,690.622047382904 1322.3144672603335,672.7154475572382 1317.664333678177,654.9572558259838 1312.4106266392928,637.3681774463337 1306.5594717310778,619.968720496878 1300.117691138419,602.7791719661009 1293.0927956893315,585.8195740986606 1285.4929760976688,569.109701027028 1277.327093413117,552.6690357157327 1268.604668689607,536.516747245098 1259.3358718841923,520.671668460951 1249.5315099993325,505.1522740163662 1239.2030144824137,489.9766588310475 1228.3624278971902,475.1625169934596 1217.0223898826962,460.72712113031406 1205.1961224159893,446.687302267458 1192.8974143959194,433.0594302056516 1180.1406055658879,419.85939443411206 1085.105454174416,514.894545825584 1094.6730607969396,524.7945726542387 1103.897091811992,535.0154767005935 1112.766792412022,545.5453408477355 1121.2718209228926,556.3718877450947 1129.4022608618102,567.4824941232856 1137.1486324994994,578.8642055122747 1144.5019039131441,590.5037513457132 1151.4535015172053,602.3875604338234 1157.9953200598377,614.5017767867994 1164.1197320732515,626.832275770271 1169.8195967669985,639.3646805739954 1175.0882683538143,652.0843789745757 1179.9196037983083,664.9765403726584 1184.3079699794696,678.0261330847502 1188.2482502586327,691.2179418694878 1191.73585044525,704.5365856679286 1194.7667041535126,717.9665355371781 1197.3372775435737,731.4921327564416 1199.4445734418487,745.0976070843933 1201.0861348355838,758.7670951465718 1202.2600477376254,772.4846589313647 1202.9649434180415,786.2343043730177 1203.2,800.0 1337.6,800.0" stroke="#bcccdc" stroke-width="1" /><polygon fill="rgb(244,162,97)" fill-opacity="0.35" points="1180.1406055658879,419.85939443411206 1166.9405697943484,407.10258560408056 1153.312697732542,394.8038775840107 1139.2728788696859,382.9776101173039 1124.8374830065404,371.63757210280977 1110.0233411689526,360.7969855175864 1094.8477259836338,350.4684900006675 1079.328331539049,340.6641281158077 1063.483252754902,331.395331310393 1047.3309642842673,322.6729065868831 1030.890298972972,314.50702390233124 1014.1804259013395,306.90720431066853 997.2208280338991,299.8823088615809 980.0312795031223,293.4405282689222 962.6318225536663,287.5893733607072 945.0427441740162,282.33566632182306 927.2845524427618,277.68553273966666 909.3779526170961,273.6443944619832 891.3438229914112,270.216963275235 873.2031905541421,267.40723541086857 854.9772064712377,265.2184868858882 836.6871214248472,263.6532696831662 818.3542608359764,262.7134087759449 800.0,262.4 800.0,396.8 813.7656956269823,397.03505658195866 827.5153410686354,397.73995226237463 841.2329048534283,398.9138651644162 854.9023929156066,400.55542655815145 868.5078672435584,402.66272245642625 882.0334644628219,405.2332958464874 895.4634143320714,408.26414955475 908.7820581305122,411.75174974136735 921.9738669152498,415.69203002053035 935.0234596273417,420.0803962016916 947.9156210254243,424.9117316461857 960.6353194260046,430.1804032330014 973.167724229729,435.88026792674845 985.4982232132006,442.00467994016236 997.6124395661766,448.54649848279473 1009.4962486542868,455.4980960868558 1021.1357944877253,462.8513675005006 1032.5175058767145,470.5977391381898 1043.6281122549053,478.7281790771073 1054.4546591522644,487.233207587978 1064.9845232994066,496.10290818800803 1075.2054273457613,505.3269392030604 1085.105454174416,514.894545825584 1180.1406055658879,419.85939443411206" stroke="#bcccdc" stroke-width="1" /><polygon fill="rgb(244,162,97)" fill-opacity="0.35" points="800.0,262.4 781.6457391640237,262.7134087759449 763.3128785751529,263.6532696831662 745.0227935287623,265.2184868858882 726.7968094458579,267.40723541086857 708.6561770085889,270.216963275235 690.6220473829042,273.6443944619832 672.7154475572382,277.68553273966666 654.9572558259838,282.33566632182306 637.3681774463337,287.5893733607072 619.9687204968778,293.4405282689221 602.7791719661009,299.8823088615809 585.8195740986606,306.9072043106684 569.1097010270281,314.50702390233124 552.6690357157327,322.6729065868831 536.5167472450979,331.395331310393 520.671668460951,340.6641281158077 505.1522740163664,350.4684900006675 489.9766588310475,360.7969855175864 475.1625169934596,371.6375721028097 460.727121130314,382.9776101173039 446.6873022674581,394.8038775840106 433.05943020565167,407.1025856040804 419.8593944341121,419.85939443411206 514.8945458255841,514.894545825584 524.7945726542387,505.3269392030603 535.0154767005936,496.1029081880079 545.5453408477355,487.233207587978 556.3718877450947,478.7281790771073 567.4824941232856,470.59773913818975 578.8642055122748,462.85136750050054 590.5037513457132,455.49809608685575 602.3875604338234,448.54649848279473 614.5017767867995,442.00467994016236 626.832275770271,435.88026792674845 639.3646805739954,430.18040323300136 652.0843789745757,424.9117316461857 664.9765403726584,420.08039620169154 678.0261330847503,415.69203002053035 691.2179418694878,411.75174974136735 704.5365856679286,408.26414955475 717.9665355371781,405.2332958464874 731.4921327564416,402.66272245642625 745.0976070843934,400.55542655815145 758.7670951465718,398.9138651644162 772.4846589313647,397.73995226237463 786.2343043730177,397.03505658195866 800.0,396.8 800.0,262.4" stroke="#bcccdc" stroke-width="1" /><polygon fill="rgb(244,162,97)" fill-opacity="0.35" points="419.8593944341121,419.85939443411206 407.1025856040805,433.0594302056516 394.80387758401065,446.68730226745805 382.977610117304,460.72712113031395 371.63757210280977,475.1625169934595 360.7969855175864,489.9766588310474 350.4684900006675,505.1522740163662 340.6641281158077,520.671668460951 331.395331310393,536.5167472450978 322.6729065868831,552.6690357157325 314.50702390233124,569.109701027028 306.9072043106684,585.8195740986606 299.8823088615809,602.7791719661006 293.4405282689222,619.9687204968777 287.5893733607072,637.3681774463337 282.33566632182317,654.9572558259838 277.68553273966666,672.7154475572381 273.6443944619832,690.6220473829039 270.216963275235,708.6561770085887 267.40723541086857,726.7968094458578 265.2184868858882,745.0227935287625 263.6532696831662,763.3128785751527 262.7134087759449,781.6457391640236 262.4,799.9999999999999 396.8,800.0 397.03505658195866,786.2343043730176 397.73995226237463,772.4846589313645 398.9138651644162,758.7670951465718 400.55542655815145,745.0976070843933 402.66272245642625,731.4921327564416 405.23329584648747,717.966535537178 408.26414955475,704.5365856679285 411.75174974136735,691.2179418694878 415.69203002053035,678.0261330847502 420.0803962016916,664.9765403726583 424.91173164618573,652.0843789745754 430.18040323300136,639.3646805739954 435.88026792674845,626.832275770271 442.00467994016236,614.5017767867994 448.54649848279473,602.3875604338234 455.4980960868558,590.5037513457132 462.8513675005006,578.8642055122747 470.5977391381898,567.4824941232855 478.7281790771073,556.3718877450947 487.233207587978,545.5453408477355 496.102908188008,535.0154767005936 505.32693920306036,524.7945726542387 514.8945458255841,514.894545825584 419.8593944341121,419.85939443411206" stroke="#bcccdc" stroke-width="1" /><polygon fill="rgb(244,162,97)" fill-opacity="0.35" points="262.4,799.9999999999999 262.7134087759449,818.3542608359763 263.6532696831662,836.6871214248472 265.2184868858882,854.9772064712374 267.40723541086857,873.2031905541421 270.216963275235,891.3438229914111 273.6443944619832,909.377952617096 277.68553273966666,927.2845524427618 282.33566632182306,945.0427441740161 287.5893733607072,962.6318225536663 293.4405282689221,980.031279503122 299.8823088615809,997.2208280338992 306.9072043106684,1014.1804259013393 314.5070239023311,1030.890298972972 322.6729065868831,1047.3309642842673 331.395331310393,1063.483252754902 340.6641281158076,1079.328331539049 350.4684900006674,1094.8477259836336 360.7969855175864,1110.0233411689524 371.6375721028097,1124.8374830065404 382.9776101173039,1139.2728788696859 394.80387758401054,1153.312697732542 407.1025856040804,1166.9405697943484 419.85939443411195,1180.1406055658879 514.8945458255839,1085.1054541744159 505.3269392030603,1075.2054273457613 496.10290818800786,1064.9845232994064 487.233207587978,1054.4546591522644 478.7281790771073,1043.6281122549053 470.59773913818975,1032.5175058767143 462.8513675005005,1021.1357944877252 455.49809608685575,1009.4962486542867 448.5464984827947,997.6124395661765 442.0046799401623,985.4982232132005 435.8802679267484,973.167724229729 430.1804032330013,960.6353194260045 424.9117316461857,947.9156210254243 420.08039620169154,935.0234596273416 415.69203002053035,921.9738669152497 411.75174974136735,908.782058130512 408.26414955475,895.4634143320714 405.2332958464874,882.0334644628219 402.66272245642625,868.5078672435584 400.55542655815145,854.9023929156066 398.9138651644162,841.2329048534281 397.73995226237463,827.5153410686354 397.03505658195866,813.7656956269823 396.8,800.0 262.4,799.9999999999999" stroke="#bcccdc" stroke-width="1" /><polygon fill="rgb(244,162,97)" fill-opacity="0.35" points="419.85939443411195,1180.1406055658879 433.05943020565155,1192.8974143959194 446.687302267458,1205.1961224159893 460.7271211303139,1217.022389882696 475.1625169934597,1228.3624278971904 489.9766588310474,1239.2030144824137 505.15227401636605,1249.5315099993325 520.671668460951,1259.3358718841923 536.5167472450978,1268.604668689607 552.6690357157323,1277.3270934131167 569.109701027028,1285.4929760976688 585.8195740986604,1293.0927956893315 602.7791719661009,1300.117691138419 619.9687204968777,1306.5594717310778 637.3681774463333,1312.4106266392928 654.9572558259837,1317.6643336781767 672.715447557238,1322.3144672603335 690.6220473829042,1326.3556055380168 708.6561770085887,1329.783036724765 726.7968094458575,1332.5927645891315 745.0227935287623,1334.781513114112 763.3128785751527,1336.3467303168338 781.6457391640238,1337.286591224055 799.9999999999999,1337.6 799.9999999999999,1203.2 786.2343043730178,1202.9649434180415 772.4846589313645,1202.2600477376254 758.7670951465718,1201.0861348355838 745.0976070843932,1199.4445734418484 731.4921327564415,1197.3372775435737 717.9665355371781,1194.7667041535126 704.5365856679285,1191.73585044525 691.2179418694877,1188.2482502586327 678.02613308475,1184.3079699794696 664.9765403726583,1179.9196037983083 652.0843789745757,1175.0882683538143 639.3646805739953,1169.8195967669985 626.8322757702709,1164.1197320732515 614.5017767867993,1157.9953200598375 602.3875604338234,1151.4535015172053 590.5037513457132,1144.5019039131441 578.8642055122746,1137.1486324994994 567.4824941232855,1129.4022608618102 556.3718877450948,1121.2718209228929 545.5453408477354,1112.766792412022 535.0154767005935,1103.897091811992 524.7945726542387,1094.6730607969396 514.8945458255839,1085.1054541744159 419.85939443411195,1180.1406055658879" stroke="#bcccdc" stroke-width="1" /><polygon fill="rgb(244,162,97)" fill-opacity="0.35" points="799.9999999999999,1337.6 818.3542608359761,1337.286591224055 836.6871214248471,1336.3467303168338 854.9772064712374,1334.781513114112 873.2031905541422,1332.5927645891315 891.3438229914111,1329.783036724765 909.3779526170956,1326.3556055380168 927.2845524427618,1322.3144672603335 945.0427441740161,1317.664333678177 962.6318225536664,1312.4106266392928 980.031279503122,1306.5594717310778 997.2208280338989,1300.117691138419 1014.1804259013394,1293.0927956893315 1030.8902989729718,1285.4929760976688 1047.3309642842676,1277.327093413117 1063.483252754902,1268.604668689607 1079.328331539049,1259.3358718841923 1094.8477259836338,1249.5315099993325 1110.0233411689524,1239.2030144824137 1124.8374830065402,1228.3624278971904 1139.2728788696859,1217.0223898826962 1153.312697732542,1205.1961224159895 1166.9405697943484,1192.8974143959194 1180.1406055658879,1180.140605565888 1085.1054541744159,1085.105454174416 1075.2054273457613,1094.6730607969396 1064.9845232994064,1103.8970918119921 1054.4546591522644,1112.766792412022 1043.628112254905,1121.2718209228929 1032.5175058767143,1129.4022608618102 1021.1357944877253,1137.1486324994994 1009.4962486542867,1144.5019039131444 997.6124395661765,1151.4535015172053 985.4982232132006,1157.9953200598377 973.167724229729,1164.1197320732517 960.6353194260046,1169.8195967669985 947.9156210254242,1175.0882683538143 935.0234596273416,1179.9196037983083 921.9738669152498,1184.3079699794696 908.782058130512,1188.2482502586327 895.4634143320714,1191.73585044525 882.0334644628217,1194.7667041535126 868.5078672435584,1197.3372775435737 854.9023929156067,1199.4445734418487 841.2329048534281,1201.0861348355838 827.5153410686353,1202.2600477376254 813.765695626982,1202.9649434180415 799.9999999999999,1203.2 799.9999999999999,1337.6" stroke="#bcccdc" stroke-width="1" /><polygon fill="rgb(244,162,97)" fill-opacity="0.35" points="1180.1406055658879,1180.140605565888 1192.8974143959194,1166.9405697943487 1205.1961224159893,1153.312697732542 1217.022389882696,1139.272878869686 1228.3624278971904,1124.8374830065404 1239.2030144824134,1110.0233411689526 1249.5315099993325,1094.847725983634 1259.3358718841923,1079.328331539049 1268.604668689607,1063.4832527549022 1277.3270934131167,1047.3309642842678 1285.4929760976688,1030.8902989729722 1293.0927956893315,1014.1804259013396 1300.117691138419,997.2208280338991 1306.5594717310778,980.0312795031223 1312.4106266392928,962.6318225536667 1317.6643336781767,945.0427441740163 1322.3144672603335,927.284552442762 1326.3556055380168,909.3779526170958 1329.783036724765,891.3438229914113 1332.5927645891315,873.2031905541425 1334.781513114112,854.9772064712377 1336.3467303168338,836.6871214248473 1337.286591224055,818.3542608359763 1337.6,800.0000000000001 1203.2,800.0000000000001 1202.9649434180415,813.7656956269822 1202.2600477376254,827.5153410686355 1201.0861348355838,841.2329048534282 1199.4445734418484,854.9023929156069 1197.3372775435737,868.5078672435585 1194.7667041535126,882.0334644628219 1191.73585044525,895.4634143320715 1188.2482502586327,908.7820581305123 1184.3079699794696,921.97386691525 1179.9196037983083,935.0234596273417 1175.0882683538143,947.9156210254243 1169.8195967669985,960.6353194260047 1164.1197320732515,973.1677242297291 1157.9953200598375,985.4982232132008 1151.4535015172053,997.6124395661766 1144.5019039131441,1009.4962486542868 1137.1486324994994,1021.1357944877254 1129.4022608618102,1032.5175058767145 1121.2718209228929,1043.6281122549053 1112.766792412022,1054.4546591522646 1103.897091811992,1064.9845232994066 1094.6730607969394,1075.2054273457616 1085.1054541744159,1085.105454174416 1180.1406055658879,1180.140605565888" stroke="#bcccdc" stroke-width="1" /><polygon fill="rgb(138,201,38)" fill-opacity="0.35" points="1472.0,800.0 1471.608239030069,777.0571739550296 1470.4334128960422,754.1410982189411 1468.4768913926398,731.278491910953 1465.7409557364142,708.4960118073222 1462.2287959059563,685.820221260736 1457.944506922521,663.27755922863 1452.8930840754165,640.8943094465478 1447.0804170977212,618.6965697824797 1440.5132832991162,596.7102218079172 1433.1993396638472,574.9609006210974 1425.1471139230239,553.4739649576261 1416.3659946116645,532.2744676233258 1406.866220122086,511.387126283785 1396.6588667663962,490.83629464466577 1385.7558358620088,470.6459340563724 1374.1698398552403,450.83958557618865 1361.9143874991657,431.4403425204579 1349.0037681030171,412.4708235388093 1335.453034871488,393.9531462418245 1321.2779873533702,375.9089014128926 1306.4951530199867,358.3591278343225 1291.1217679948993,341.32428775706455 1275.17575695736,324.8242430426401 1180.1406055658879,419.85939443411206 1192.8974143959194,433.0594302056516 1205.1961224159893,446.687302267458 1217.0223898826962,460.727121130314 1228.3624278971902,475.1625169934595 1239.2030144824137,489.9766588310475 1249.5315099993325,505.1522740163662 1259.3358718841923,520.671668460951 1268.604668689607,536.516747245098 1277.327093413117,552.6690357157327 1285.4929760976688,569.109701027028 1293.0927956893315,585.8195740986606 1300.117691138419,602.7791719661009 1306.5594717310778,619.9687204968778 1312.4106266392928,637.3681774463337 1317.664333678177,654.9572558259838 1322.3144672603335,672.7154475572382 1326.3556055380168,690.622047382904 1329.783036724765,708.6561770085888 1332.5927645891315,726.7968094458578 1334.781513114112,745.0227935287623 1336.3467303168338,763.3128785751529 1337.286591224055,781.6457391640237 1337.6,800.0 1472.0,800.0" stroke="#bcccdc" stroke-width="1" /><polygon fill="rgb(138,201,38)" fill-opacity="0.35" points="1275.17575695736,324.8242430426401 1258.6757122429356,308.87823200510064 1241.6408721656776,293.5048469800134 1224.0910985871076,278.7220126466299 1206.0468537581755,264.5469651285123 1187.5291764611907,250.99623189698298 1168.5596574795422,238.08561250083437 1149.1604144238113,225.8301601447597 1129.3540659436276,214.24416413799133 1109.1637053553343,203.34113323360384 1088.612873716215,193.13377987791398 1067.7255323766744,183.6340053883357 1046.526035042374,174.85288607697612 1025.0390993789028,166.80066033615276 1003.289778192083,159.4867167008839 981.3034302175203,152.91958290227888 959.1056905534523,147.1069159245834 936.72244077137,142.05549307747913 914.1797787392641,137.7712040940437 891.5039881926778,134.2590442635858 868.7215080890471,131.5231086073602 845.8589017810589,129.56658710395777 822.9428260449705,128.39176096993106 800.0,128.0 800.0,262.4 818.3542608359764,262.7134087759449 836.6871214248472,263.6532696831662 854.9772064712377,265.2184868858882 873.2031905541421,267.40723541086857 891.3438229914112,270.216963275235 909.377952617096,273.6443944619832 927.2845524427618,277.68553273966666 945.0427441740162,282.33566632182306 962.6318225536663,287.5893733607072 980.0312795031223,293.4405282689222 997.2208280338991,299.8823088615809 1014.1804259013395,306.90720431066853 1030.890298972972,314.50702390233124 1047.3309642842673,322.6729065868831 1063.483252754902,331.395331310393 1079.328331539049,340.6641281158077 1094.8477259836338,350.4684900006675 1110.0233411689526,360.7969855175864 1124.8374830065404,371.6375721028097 1139.2728788696859,382.9776101173039 1153.312697732542,394.8038775840107 1166.9405697943484,407.10258560408056 1180.1406055658879,419.85939443411206 1275.17575695736,324.8242430426401" stroke="#bcccdc" stroke-width="1" /><polygon fill="rgb(138,201,38)" fill-opacity="0.35" points="800.0,128.0 777.0571739550295,128.39176096993106 754.1410982189411,129.56658710395777 731.278491910953,131.5231086073602 708.4960118073224,134.2590442635858 685.820221260736,137.7712040940437 663.2775592286303,142.055493077479 640.8943094465478,147.1069159245834 618.6965697824799,152.91958290227888 596.7102218079172,159.4867167008839 574.9609006210974,166.80066033615265 553.4739649576261,174.85288607697612 532.2744676233258,183.6340053883356 511.3871262837851,193.13377987791398 490.8362946446658,203.34113323360384 470.6459340563724,214.24416413799133 450.8395855761888,225.8301601447596 431.440342520458,238.08561250083426 412.4708235388093,250.99623189698286 393.9531462418245,264.54696512851217 375.9089014128925,278.7220126466299 358.35912783432263,293.50484698001327 341.3242877570646,308.87823200510053 324.82424304264015,324.8242430426401 419.8593944341121,419.85939443411206 433.05943020565167,407.1025856040804 446.6873022674581,394.8038775840106 460.727121130314,382.9776101173039 475.1625169934596,371.6375721028097 489.9766588310475,360.7969855175864 505.1522740163664,350.4684900006675 520.671668460951,340.6641281158077 536.5167472450979,331.395331310393 552.6690357157327,322.6729065868831 569.1097010270281,314.50702390233124 585.8195740986606,306.9072043106684 602.7791719661009,299.8823088615809 619.9687204968778,293.4405282689221 637.3681774463337,287.5893733607072 654.9572558259838,282.33566632182306 672.7154475572382,277.68553273966666 690.622047382904,273.6443944619832 708.6561770085889,270.216963275235 726.7968094458579,267.40723541086857 745.0227935287623,265.2184868858882 763.3128785751529,263.6532696831662 781.6457391640237,262.7134087759449 800.0,262.4 800.0,128.0" stroke="#bcccdc" stroke-width="1" /><polygon fill="rgb(138,201,38)" fill-opacity="0.35" points="324.82424304264015,324.8242430426401 308.87823200510064,341.32428775706455 293.50484698001327,358.35912783432263 278.72201264663,375.9089014128924 264.5469651285123,393.95314624182447 250.99623189698298,412.47082353880927 238.08561250083437,431.4403425204579 225.8301601447597,450.8395855761887 214.24416413799133,470.6459340563723 203.34113323360384,490.83629464466566 193.13377987791398,511.38712628378494 183.6340053883356,532.2744676233258 174.85288607697623,553.4739649576259 166.80066033615276,574.9609006210972 159.4867167008839,596.710221807917 152.919582902279,618.6965697824797 147.1069159245834,640.8943094465476 142.05549307747913,663.2775592286299 137.7712040940437,685.8202212607359 134.2590442635858,708.4960118073222 131.5231086073602,731.278491910953 129.56658710395777,754.1410982189409 128.39176096993106,777.0571739550294 128.0,799.9999999999999 262.4,799.9999999999999 262.7134087759449,781.6457391640236 263.6532696831662,763.3128785751527 265.2184868858882,745.0227935287625 267.40723541086857,726.7968094458578 270.216963275235,708.6561770085887 273.6443944619832,690.6220473829039 277.68553273966666,672.7154475572381 282.33566632182317,654.9572558259838 287.5893733607072,637.3681774463337 293.4405282689222,619.9687204968777 299.8823088615809,602.7791719661006 306.9072043106684,585.8195740986606 314.50702390233124,569.109701027028 322.6729065868831,552.6690357157325 331.395331310393,536.5167472450978 340.6641281158077,520.671668460951 350.4684900006675,505.1522740163662 360.7969855175864,489.9766588310474 371.63757210280977,475.1625169934595 382.977610117304,460.72712113031395 394.80387758401065,446.68730226745805 407.1025856040805,433.0594302056516 419.8593944341121,419.85939443411206 324.82424304264015,324.8242430426401" stroke="#bcccdc" stroke-width="1" /><polygon fill="rgb(138,201,38)" fill-opacity="0.35" points="128.0,799.9999999999999 128.39176096993106,822.9428260449704 129.56658710395777,845.858901781059 131.5231086073602,868.7215080890468 134.2590442635858,891.5039881926775 137.7712040940437,914.179778739264 142.055493077479,936.72244077137 147.1069159245834,959.1056905534523 152.91958290227888,981.3034302175201 159.4867167008839,1003.2897781920828 166.80066033615265,1025.0390993789026 174.85288607697612,1046.5260350423741 183.63400538833548,1067.725532376674 193.13377987791387,1088.6128737162148 203.34113323360373,1109.163705355334 214.24416413799122,1129.3540659436276 225.83016014475947,1149.160414423811 238.08561250083426,1168.559657479542 250.99623189698286,1187.5291764611907 264.54696512851217,1206.0468537581755 278.7220126466299,1224.0910985871074 293.50484698001316,1241.6408721656774 308.87823200510053,1258.6757122429353 324.82424304264,1275.17575695736 419.85939443411195,1180.1406055658879 407.1025856040804,1166.9405697943484 394.80387758401054,1153.312697732542 382.9776101173039,1139.2728788696859 371.6375721028097,1124.8374830065404 360.7969855175864,1110.0233411689524 350.4684900006674,1094.8477259836336 340.6641281158076,1079.328331539049 331.395331310393,1063.483252754902 322.6729065868831,1047.3309642842673 314.5070239023311,1030.890298972972 306.9072043106684,1014.1804259013393 299.8823088615809,997.2208280338992 293.4405282689221,980.031279503122 287.5893733607072,962.6318225536663 282.33566632182306,945.0427441740161 277.68553273966666,927.2845524427618 273.6443944619832,909.377952617096 270.216963275235,891.3438229914111 267.40723541086857,873.2031905541421 265.2184868858882,854.9772064712374 263.6532696831662,836.6871214248472 262.7134087759449,818.3542608359763 262.4,799.9999999999999 128.0,799.9999999999999" stroke="#bcccdc" stroke-width="1" /><polygon fill="rgb(138,201,38)" fill-opacity="0.35" points="324.82424304264,1275.17575695736 341.32428775706444,1291.1217679948993 358.3591278343225,1306.4951530199867 375.90890141289236,1321.27798735337 393.9531462418246,1335.453034871488 412.47082353880927,1349.0037681030171 431.44034252045753,1361.9143874991655 450.83958557618865,1374.1698398552403 470.64593405637225,1385.7558358620086 490.8362946446654,1396.658866766396 511.38712628378494,1406.866220122086 532.2744676233254,1416.3659946116643 553.4739649576261,1425.1471139230239 574.9609006210972,1433.1993396638472 596.7102218079167,1440.513283299116 618.6965697824796,1447.080417097721 640.8943094465476,1452.8930840754165 663.2775592286303,1457.944506922521 685.8202212607358,1462.2287959059563 708.4960118073219,1465.740955736414 731.278491910953,1468.4768913926398 754.1410982189409,1470.4334128960422 777.0571739550297,1471.608239030069 799.9999999999999,1472.0 799.9999999999999,1337.6 781.6457391640238,1337.286591224055 763.3128785751527,1336.3467303168338 745.0227935287623,1334.781513114112 726.7968094458575,1332.5927645891315 708.6561770085887,1329.783036724765 690.6220473829042,1326.3556055380168 672.715447557238,1322.3144672603335 654.9572558259837,1317.6643336781767 637.3681774463333,1312.4106266392928 619.9687204968777,1306.5594717310778 602.7791719661009,1300.117691138419 585.8195740986604,1293.0927956893315 569.109701027028,1285.4929760976688 552.6690357157323,1277.3270934131167 536.5167472450978,1268.604668689607 520.671668460951,1259.3358718841923 505.15227401636605,1249.5315099993325 489.9766588310474,1239.2030144824137 475.1625169934597,1228.3624278971904 460.7271211303139,1217.022389882696 446.687302267458,1205.1961224159893 433.05943020565155,1192.8974143959194 419.85939443411195,1180.1406055658879 324.82424304264,1275.17575695736" stroke="#bcccdc" stroke-width="1" /><polygon fill="rgb(138,201,38)" fill-opacity="0.35" points="799.9999999999999,1472.0 822.94282604497,1471.608239030069 845.8589017810589,1470.4334128960422 868.7215080890468,1468.4768913926398 891.5039881926779,1465.7409557364142 914.1797787392638,1462.2287959059563 936.7224407713695,1457.9445069225212 959.1056905534522,1452.8930840754165 981.3034302175201,1447.0804170977212 1003.2897781920831,1440.513283299116 1025.0390993789026,1433.1993396638472 1046.5260350423737,1425.1471139230239 1067.7255323766742,1416.3659946116645 1088.6128737162148,1406.8662201220861 1109.1637053553343,1396.658866766396 1129.3540659436276,1385.7558358620088 1149.160414423811,1374.1698398552405 1168.5596574795422,1361.9143874991655 1187.5291764611907,1349.0037681030171 1206.046853758175,1335.4530348714882 1224.0910985871074,1321.27798735337 1241.6408721656771,1306.495153019987 1258.6757122429356,1291.1217679948993 1275.17575695736,1275.1757569573601 1180.1406055658879,1180.140605565888 1166.9405697943484,1192.8974143959194 1153.312697732542,1205.1961224159895 1139.2728788696859,1217.0223898826962 1124.8374830065402,1228.3624278971904 1110.0233411689524,1239.2030144824137 1094.8477259836338,1249.5315099993325 1079.328331539049,1259.3358718841923 1063.483252754902,1268.604668689607 1047.3309642842676,1277.327093413117 1030.8902989729718,1285.4929760976688 1014.1804259013394,1293.0927956893315 997.2208280338989,1300.117691138419 980.031279503122,1306.5594717310778 962.6318225536664,1312.4106266392928 945.0427441740161,1317.664333678177 927.2845524427618,1322.3144672603335 909.3779526170956,1326.3556055380168 891.3438229914111,1329.783036724765 873.2031905541422,1332.5927645891315 854.9772064712374,1334.781513114112 836.6871214248471,1336.3467303168338 818.3542608359761,1337.286591224055 799.9999999999999,1337.6 799.9999999999999,1472.0" stroke="#bcccdc" stroke-width="1" /><polygon fill="rgb(138,201,38)" fill-opacity="0.35" points="1275.17575695736,1275.1757569573601 1291.121767994899,1258.6757122429358 1306.4951530199867,1241.6408721656776 1321.27798735337,1224.0910985871076 1335.453034871488,1206.0468537581755 1349.003768103017,1187.529176461191 1361.9143874991655,1168.5596574795425 1374.1698398552403,1149.1604144238113 1385.7558358620086,1129.3540659436278 1396.658866766396,1109.1637053553345 1406.866220122086,1088.612873716215 1416.3659946116643,1067.7255323766744 1425.1471139230239,1046.526035042374 1433.1993396638472,1025.0390993789028 1440.513283299116,1003.2897781920833 1447.080417097721,981.3034302175204 1452.8930840754165,959.1056905534525 1457.944506922521,936.7224407713699 1462.2287959059563,914.1797787392642 1465.740955736414,891.5039881926781 1468.4768913926398,868.7215080890471 1470.4334128960422,845.8589017810592 1471.608239030069,822.9428260449704 1472.0,800.0000000000001 1337.6,800.0000000000001 1337.286591224055,818.3542608359763 1336.3467303168338,836.6871214248473 1334.781513114112,854.9772064712377 1332.5927645891315,873.2031905541425 1329.783036724765,891.3438229914113 1326.3556055380168,909.3779526170958 1322.3144672603335,927.284552442762 1317.6643336781767,945.0427441740163 1312.4106266392928,962.6318225536667 1306.5594717310778,980.0312795031223 1300.117691138419,997.2208280338991 1293.0927956893315,1014.1804259013396 1285.4929760976688,1030.8902989729722 1277.3270934131167,1047.3309642842678 1268.604668689607,1063.4832527549022 1259.3358718841923,1079.328331539049 1249.5315099993325,1094.847725983634 1239.2030144824134,1110.0233411689526 1228.3624278971904,1124.8374830065404 1217.022389882696,1139.272878869686 1205.1961224159893,1153.312697732542 1192.8974143959194,1166.9405697943487 1180.1406055658879,1180.140605565888 1275.17575695736,1275.1757569573601" stroke="#bcccdc" stroke-width="1" /><polyline fill="none" points="800.0,800.0 880.6605030404683,766.5893256928018 924.1694091695169,748.5673466901319" stroke="rgb(168,218,220)" stroke-linecap="round" stroke-width="2.0" /><polyline fill="none" points="800.0,800.0 833.4106743071982,719.3394969595317 851.4326533098681,675.8305908304831" stroke="rgb(168,218,220)" stroke-linecap="round" stroke-width="2.0" /><polyline fill="none" points="800.0,800.0 766.5893256928018,719.3394969595317 748.5673466901319,675.8305908304831" stroke="rgb(168,218,220)" stroke-linecap="round" stroke-width="2.0" /><polyline fill="none" points="800.0,800.0 719.3394969595317,766.5893256928018 675.8305908304831,748.5673466901319" stroke="rgb(168,218,220)" stroke-linecap="round" stroke-width="2.0" /><polyline fill="none" points="800.0,800.0 719.3394969595317,833.4106743071982 675.8305908304831,851.4326533098681" stroke="rgb(168,218,220)" stroke-linecap="round" stroke-width="2.0" /><polyline fill="none" points="800.0,800.0 766.5893256928018,880.6605030404683 748.5673466901319,924.1694091695169" stroke="rgb(168,218,220)" stroke-linecap="round" stroke-width="2.0" /><polyline fill="none" points="800.0,800.0 833.4106743071982,880.6605030404683 851.4326533098681,924.1694091695169" stroke="rgb(168,218,220)" stroke-linecap="round" stroke-width="2.0" /><polyline fill="none" points="800.0,800.0 880.6605030404683,833.4106743071982 924.1694091695169,851.4326533098681" stroke="rgb(168,218,220)" stroke-linecap="round" stroke-width="2.0" /><polyline fill="none" points="924.1694091695169,748.5673466901319 988.2078404277593,722.0417599498709 1048.3388183390339,697.1346933802639" stroke="rgb(168,218,220)" stroke-linecap="round" stroke-width="2.0" /><polyline fill="none" points="851.4326533098681,675.8305908304831 877.9582400501292,611.7921595722407 902.8653066197362,551.6611816609661" stroke="rgb(168,218,220)" stroke-linecap="round" stroke-width="2.0" /><polyline fill="none" points="748.5673466901319,675.8305908304831 722.0417599498709,611.7921595722408 697.1346933802639,551.6611816609661" stroke="rgb(168,218,220)" stroke-linecap="round" stroke-width="2.0" /><polyline fill="none" points="675.8305908304831,748.5673466901319 611.7921595722408,722.0417599498708 551.6611816609661,697.1346933802638" stroke="rgb(168,218,220)" stroke-linecap="round" stroke-width="2.0" /><polyline fill="none" points="675.8305908304831,851.4326533098681 611.7921595722407,877.9582400501291 551.6611816609661,902.8653066197361" stroke="rgb(168,218,220)" stroke-linecap="round" stroke-width="2.0" /><polyline fill="none" points="748.5673466901319,924.1694091695169 722.0417599498708,988.2078404277593 697.1346933802637,1048.3388183390339" stroke="rgb(168,218,220)" stroke-linecap="round" stroke-width="2.0" /><polyline fill="none" points="851.4326533098681,924.1694091695169 877.9582400501291,988.2078404277593 902.8653066197362,1048.3388183390339" stroke="rgb(168,218,220)" stroke-linecap="round" stroke-width="2.0" /><polyline fill="none" points="924.1694091695169,851.4326533098681 988.2078404277592,877.9582400501292 1048.3388183390339,902.8653066197363" stroke="rgb(168,218,220)" stroke-linecap="round" stroke-width="2.0" /><polyline fill="none" points="1048.3388183390339,697.1346933802639 1106.5099115537791,673.0394376326468 1172.5082275085508,645.7020400703958" stroke="rgb(168,218,220)" stroke-linecap="round" stroke-width="2.0" /><polyline fill="none" points="902.8653066197362,551.6611816609661 926.9605623673533,493.4900884462206 954.2979599296042,427.4917724914492" stroke="rgb(168,218,220)" stroke-linecap="round" stroke-width="2.0" /><polyline fill="none" points="697.1346933802639,551.6611816609661 673.0394376326469,493.49008844622097 645.7020400703958,427.4917724914492" stroke="rgb(168,218,220)" stroke-linecap="round" stroke-width="2.0" /><polyline fill="none" points="551.6611816609661,697.1346933802638 493.4900884462208,673.0394376326467 427.4917724914492,645.7020400703957" stroke="rgb(168,218,220)" stroke-linecap="round" stroke-width="2.0" /><polyline fill="none" points="551.6611816609661,902.8653066197361 493.4900884462207,926.9605623673531 427.4917724914491,954.2979599296042" stroke="rgb(168,218,220)" stroke-linecap="round" stroke-width="2.0" /><polyline fill="none" points="697.1346933802637,1048.3388183390339 673.0394376326467,1106.5099115537791 645.7020400703956,1172.5082275085506" stroke="rgb(168,218,220)" stroke-linecap="round" stroke-width="2.0" /><polyline fill="none" points="902.8653066197362,1048.3388183390339 926.9605623673532,1106.5099115537791 954.2979599296043,1172.5082275085508" stroke="rgb(168,218,220)" stroke-linecap="round" stroke-width="2.0" /><polyline fill="none" points="1048.3388183390339,902.8653066197363 1106.5099115537791,926.9605623673533 1172.5082275085506,954.2979599296044" stroke="rgb(168,218,220)" stroke-linecap="round" stroke-width="2.0" /><polyline fill="none" points="1172.5082275085508,645.7020400703958 1226.3483732139034,623.4007215190952 1296.6776366780678,594.2693867605277" stroke="rgb(168,218,220)" stroke-linecap="round" stroke-width="2.0" /><polyline fill="none" points="954.2979599296042,427.4917724914492 976.5992784809048,373.6516267860964 1005.7306132394723,303.32236332193224" stroke="rgb(168,218,220)" stroke-linecap="round" stroke-width="2.0" /><polyline fill="none" points="645.7020400703958,427.4917724914492 623.4007215190952,373.65162678609653 594.2693867605278,303.32236332193224" stroke="rgb(168,218,220)" stroke-linecap="round" stroke-width="2.0" /><polyline fill="none" points="427.4917724914492,645.7020400703957 373.6516267860964,623.4007215190951 303.32236332193224,594.2693867605277" stroke="rgb(168,218,220)" stroke-linecap="round" stroke-width="2.0" /><polyline fill="none" points="427.4917724914491,954.2979599296042 373.6516267860964,976.5992784809048 303.32236332193224,1005.7306132394722" stroke="rgb(168,218,220)" stroke-linecap="round" stroke-width="2.0" /><polyline fill="none" points="645.7020400703956,1172.5082275085506 623.4007215190951,1226.3483732139034 594.2693867605275,1296.6776366780675" stroke="rgb(168,218,220)" stroke-linecap="round" stroke-width="2.0" /><polyline fill="none" points="954.2979599296043,1172.5082275085508 976.5992784809047,1226.3483732139036 1005.7306132394724,1296.6776366780678" stroke="rgb(168,218,220)" stroke-linecap="round" stroke-width="2.0" /><polyline fill="none" points="1172.5082275085506,954.2979599296044 1226.3483732139036,976.5992784809049 1296.6776366780675,1005.7306132394726" stroke="rgb(168,218,220)" stroke-linecap="round" stroke-width="2.0" /><polyline fill="none" points="1296.6776366780678,594.2693867605277 1346.6989650520625,573.5498741401009 1420.8470458475847,542.8367334506597" stroke="rgb(168,218,220)" stroke-linecap="round" stroke-width="2.0" /><polyline fill="none" points="1005.7306132394723,303.32236332193224 1026.450125859899,253.30103494793752 1057.1632665493403,179.1529541524153" stroke="rgb(168,218,220)" stroke-linecap="round" stroke-width="2.0" /><polyline fill="none" points="594.2693867605278,303.32236332193224 573.5498741401011,253.30103494793786 542.8367334506597,179.1529541524153" stroke="rgb(168,218,220)" stroke-linecap="round" stroke-width="2.0" /><polyline fill="none" points="303.32236332193224,594.2693867605277 253.30103494793752,573.5498741401011 179.1529541524153,542.8367334506596" stroke="rgb(168,218,220)" stroke-linecap="round" stroke-width="2.0" /><polyline fill="none" points="303.32236332193224,1005.7306132394722 253.30103494793752,1026.4501258598991 179.1529541524153,1057.1632665493403" stroke="rgb(168,218,220)" stroke-linecap="round" stroke-width="2.0" /><polyline fill="none" points="594.2693867605275,1296.6776366780675 573.5498741401009,1346.6989650520625 542.8367334506593,1420.8470458475845" stroke="rgb(168,218,220)" stroke-linecap="round" stroke-width="2.0" /><polyline fill="none" points="1005.7306132394724,1296.6776366780678 1026.450125859899,1346.6989650520622 1057.1632665493405,1420.8470458475845" stroke="rgb(168,218,220)" stroke-linecap="round" stroke-width="2.0" /><polyline fill="none" points="1296.6776366780675,1005.7306132394726 1346.6989650520625,1026.4501258598991 1420.8470458475845,1057.1632665493407" stroke="rgb(168,218,220)" stroke-linecap="round" stroke-width="2.0" /><polyline fill="none" points="800.0,800.0 934.4,800.0 1068.8,800.0 1203.2,800.0 1337.6,800.0 1472.0,800.0" stroke="rgb(69,123,157)" stroke-linecap="round" stroke-width="4.0" /><polyline fill="none" points="800.0,800.0 895.035151391472,704.964848608528 990.0703027829439,609.9296972170561 1085.105454174416,514.894545825584 1180.1406055658879,419.85939443411206 1275.17575695736,324.8242430426401" stroke="rgb(69,123,157)" stroke-linecap="round" stroke-width="4.0" /><polyline fill="none" points="800.0,800.0 800.0,665.6 800.0,531.2 800.0,396.8 800.0,262.4 800.0,128.0" stroke="rgb(69,123,157)" stroke-linecap="round" stroke-width="4.0" /><polyline fill="none" points="800.0,800.0 704.964848608528,704.964848608528 609.9296972170561,609.9296972170561 514.8945458255841,514.894545825584 419.8593944341121,419.85939443411206 324.82424304264015,324.8242430426401" stroke="rgb(69,123,157)" stroke-linecap="round" stroke-width="4.0" /><polyline fill="none" points="800.0,800.0 665.6,800.0 531.2,800.0 396.8,800.0 262.4,799.9999999999999 128.0,799.9999999999999" stroke="rgb(69,123,157)" stroke-linecap="round" stroke-width="4.0" /><polyline fill="none" points="800.0,800.0 704.964848608528,895.035151391472 609.929697217056,990.0703027829439 514.8945458255839,1085.1054541744159 419.85939443411195,1180.1406055658879 324.82424304264,1275.17575695736" stroke="rgb(69,123,157)" stroke-linecap="round" stroke-width="4.0" /><polyline fill="none" points="800.0,800.0 800.0,934.4 800.0,1068.8 799.9999999999999,1203.2 799.9999999999999,1337.6 799.9999999999999,1472.0" stroke="rgb(69,123,157)" stroke-linecap="round" stroke-width="4.0" /><polyline fill="none" points="800.0,800.0 895.035151391472,895.035151391472 990.0703027829439,990.070302782944 1085.1054541744159,1085.105454174416 1180.1406055658879,1180.140605565888 1275.17575695736,1275.1757569573601" stroke="rgb(69,123,157)" stroke-linecap="round" stroke-width="4.0" /><polyline fill="none" points="934.4,800.0 895.035151391472,704.964848608528 800.0,665.6 704.964848608528,704.964848608528 665.6,800.0 704.964848608528,895.035151391472 800.0,934.4 895.035151391472,895.035151391472 934.4,800.0" stroke="rgb(58,80,107)" stroke-linecap="round" stroke-width="5.0" /><polyline fill="none" points="1068.8,800.0 990.0703027829439,609.9296972170561 800.0,531.2 609.9296972170561,609.9296972170561 531.2,800.0 609.929697217056,990.0703027829439 800.0,1068.8 990.0703027829439,990.070302782944 1068.8,800.0" stroke="rgb(58,80,107)" stroke-linecap="round" stroke-width="5.0" /><polyline fill="none" points="1203.2,800.0 1085.105454174416,514.894545825584 800.0,396.8 514.8945458255841,514.894545825584 396.8,800.0 514.8945458255839,1085.1054541744159 799.9999999999999,1203.2 1085.1054541744159,1085.105454174416 1203.2,800.0" stroke="rgb(58,80,107)" stroke-linecap="round" stroke-width="5.0" /><polyline fill="none" points="1337.6,800.0 1180.1406055658879,419.85939443411206 800.0,262.4 419.8593944341121,419.85939443411206 262.4,799.9999999999999 419.85939443411195,1180.1406055658879 799.9999999999999,1337.6 1180.1406055658879,1180.140605565888 1337.6,800.0" stroke="rgb(58,80,107)" stroke-linecap="round" stroke-width="5.0" /><polyline fill="none" points="1472.0,800.0 1275.17575695736,324.8242430426401 800.0,128.0 324.82424304264015,324.8242430426401 128.0,799.9999999999999 324.82424304264,1275.17575695736 799.9999999999999,1472.0 1275.17575695736,1275.1757569573601 1472.0,800.0" stroke="rgb(58,80,107)" stroke-linecap="round" stroke-width="5.0" /><circle cx="800.0" cy="800.0" fill="#1d3557" r="5" /><circle cx="1068.8" cy="800.0" fill="#1d3557" r="5" /><circle cx="1017.4637680879858" cy="642.0033241837832" fill="#1d3557" r="5" /><circle cx="883.0637680879859" cy="544.3560084198627" fill="#1d3557" r="5" /><circle cx="716.9362319120141" cy="544.3560084198627" fill="#1d3557" r="5" /><circle cx="582.5362319120142" cy="642.0033241837832" fill="#1d3557" r="5" /><circle cx="531.2" cy="800.0" fill="#1d3557" r="5" /><circle cx="582.5362319120142" cy="957.9966758162168" fill="#1d3557" r="5" /><circle cx="716.9362319120141" cy="1055.6439915801373" fill="#1d3557" r="5" /><circle cx="883.0637680879859" cy="1055.6439915801373" fill="#1d3557" r="5" /><circle cx="1017.4637680879858" cy="957.9966758162168" fill="#1d3557" r="5" /><circle cx="1035.2" cy="800.0" fill="#1d3557" r="5" /><circle cx="1203.2" cy="800.0" fill="#1d3557" r="5" /><circle cx="1371.1999999999998" cy="800.0" fill="#1d3557" r="5" /><circle cx="966.311514935076" cy="633.688485064924" fill="#1d3557" r="5" /><circle cx="1085.105454174416" cy="514.894545825584" fill="#1d3557" r="5" /><circle cx="1203.899393413756" cy="396.10060658624406" fill="#1d3557" r="5" /><circle cx="800.0" cy="564.8" fill="#1d3557" r="5" /><circle cx="800.0" cy="396.8" fill="#1d3557" r="5" /><circle cx="800.0" cy="228.80000000000007" fill="#1d3557" r="5" /><circle cx="633.6884850649241" cy="633.688485064924" fill="#1d3557" r="5" /><circle cx="514.8945458255841" cy="514.894545825584" fill="#1d3557" r="5" /><circle cx="396.1006065862441" cy="396.10060658624406" fill="#1d3557" r="5" /><circle cx="564.8" cy="800.0" fill="#1d3557" r="5" /><circle cx="396.8" cy="800.0" fill="#1d3557" r="5" /><circle cx="228.80000000000007" cy="799.9999999999999" fill="#1d3557" r="5" /><circle cx="633.688485064924" cy="966.3115149350759" fill="#1d3557" r="5" /><circle cx="514.8945458255839" cy="1085.1054541744159" fill="#1d3557" r="5" /><circle cx="396.10060658624394" cy="1203.899393413756" fill="#1d3557" r="5" /><circle cx="800.0" cy="1035.2" fill="#1d3557" r="5" /><circle cx="799.9999999999999" cy="1203.2" fill="#1d3557" r="5" /><circle cx="799.9999999999999" cy="1371.1999999999998" fill="#1d3557" r="5" /><circle cx="966.3115149350759" cy="966.311514935076" fill="#1d3557" r="5" /><circle cx="1085.1054541744159" cy="1085.105454174416" fill="#1d3557" r="5" /><circle cx="1203.899393413756" cy="1203.8993934137561" fill="#1d3557" r="5" /></svg>